<svg width="251" height="101" viewBox="0 0 251 101" fill="none" xmlns="http://www.w3.org/2000/svg">
<path d="M99.9298 85.2155C97.9386 86.792 95.8401 88.3363 93.8811 90.0487C91.7112 91.9469 89.2052 92.2723 86.5169 91.9362C82.0268 91.375 78.3769 89.1657 75.1989 86.0556C73.3507 84.2538 71.5561 82.4056 69.6114 80.7183C65.4109 77.0755 60.5598 75.6598 55.0938 77.0469C53.9248 77.3365 52.8774 78.1337 51.7799 78.6949C51.8443 78.8165 51.9086 78.9416 51.9801 79.0703C52.1946 79.0309 52.4055 79.0059 52.62 78.9666C57.0958 78.1837 61.4321 78.5912 65.1678 81.3296C67.5058 83.0491 69.5863 85.1547 71.6276 87.2353C75.3418 91.0032 79.1741 94.503 84.9118 95.2072C70.2155 102.235 54.5219 101.449 41.7238 94.9355C16.521 76.8646 26.8381 50.4213 30.0412 43.6898C30.0912 43.6755 30.1377 43.6648 30.1913 43.6433C29.7731 44.6264 29.3655 45.5809 29.0545 46.564C27.503 51.4866 26.7666 56.545 27.1419 61.7C28.0392 74.0583 33.1298 83.8856 44.5229 89.7448C47.5973 91.3356 50.9077 92.1292 54.4075 91.9219C56.5023 91.8004 58.0502 90.8244 59.0512 88.9762C60.0128 87.2174 59.4909 85.648 57.5462 84.7328C56.4916 88.1111 55.1117 88.9977 51.5511 88.5115C48.2873 88.0646 45.3094 86.7848 42.5889 84.9759C36.8262 81.158 33.255 75.717 31.2173 69.2108C30.631 67.3376 30.3057 65.3785 29.8588 63.4624C33.6303 68.1383 38.2312 71.1233 44.1047 71.7954C48.3945 72.2852 52.4449 71.5809 55.4942 68.1204C58.2469 64.9996 57.657 60.4309 54.3002 58.454C53.5709 58.0215 52.7701 57.5996 51.9229 58.2717C53.0025 60.7598 52.2089 62.4436 49.778 62.9369C46.6893 63.5553 43.6471 60.8956 44.0153 57.7819C44.4407 54.1642 46.9217 52.2659 50.0961 51.2757C56.5631 49.2523 62.2543 51.197 67.4307 55.1187C71.4381 58.1537 73.8261 62.347 75.6243 66.9479C77.1758 70.9267 79.0991 74.7089 81.8589 78.0085C84.8689 81.6191 88.6153 84.1466 93.2734 84.9652C95.4076 85.3513 97.649 85.1511 99.9298 85.2155Z" fill="white"/>
<path d="M0.105228 21.5435C0.0766294 22.3693 -0.0699593 23.2094 0.0408616 24.0173C0.841632 29.9016 4.04831 34.3344 8.78143 37.6483C15.899 42.6317 23.6171 43.5754 31.7356 40.3831C34.4239 39.3249 37.0086 38.0093 39.6575 36.8404C40.5763 36.4364 41.5201 36.0646 42.4889 35.7965C44.6803 35.1888 46.6071 35.8037 48.4088 37.1228C49.5313 37.9414 50.7468 38.6421 51.9623 39.3249C53.0454 39.9326 53.789 39.5001 54.2287 38.3954C55.0402 36.3685 55.6694 34.2307 56.7383 32.3503C57.9251 30.2555 59.5195 28.3965 60.9816 26.5412C59.6911 29.5405 58.1897 32.4719 57.178 35.5606C56.3164 38.1952 55.8124 40.9908 55.53 43.7577C55.2261 46.6998 56.5917 47.7973 59.5374 47.2468C61.0746 46.9608 62.6189 46.4961 64.0345 45.8383C70.0224 43.0606 76.2105 40.9229 82.6346 39.4035C84.9189 38.8602 87.1282 37.9414 89.3196 37.062C92.8587 35.6356 94.3029 32.8937 94.0849 29.1508C93.7024 22.4337 91.5717 16.2742 88.0434 10.6116C87.1639 9.19951 85.877 7.95903 84.5579 6.91159C81.3119 4.33411 77.476 3.3832 73.3828 3.38678C72.0708 3.39035 70.7446 3.40465 69.4576 3.612C68.0348 3.84436 66.8051 3.53692 65.5396 2.9292C62.3687 1.4063 59.112 0.0907554 55.5228 0.00495865C49.8781 -0.127311 45.2844 2.40012 41.2019 5.96783C39.3 7.63372 37.5698 9.50695 35.8825 11.3945C31.9251 15.8237 27.9427 20.2315 24.1784 24.8217C22.2551 27.1668 20.7715 29.8765 19.1307 32.4504C18.5086 33.4264 18.859 33.9304 20.0172 34.0949C22.9879 34.5131 25.905 34.2307 29.0688 33.4943C27.2134 35.2424 25.2294 35.961 22.9915 36.0718C18.8018 36.2755 14.9338 35.1352 11.2767 33.1904C6.32549 30.5593 2.69345 26.6663 0.43771 21.497C0.323314 21.5149 0.216049 21.5292 0.105228 21.5435ZM44.1511 15.3232C45.8563 14.8156 47.7296 15.8595 48.4803 17.6326C47.5187 17.5432 46.4712 17.2859 45.4595 17.3895C44.4193 17.4968 43.4112 17.9472 42.3888 18.2475C42.0992 16.8676 42.8284 15.7201 44.1511 15.3232Z" fill="white"/>
<path d="M34.3274 90.2918C32.422 88.8368 30.6131 87.2353 28.9258 85.4979C16.5603 72.7392 13.2214 55.0865 16.0956 43.9615C18.1905 44.5371 20.3211 44.8195 22.4839 44.8195C24.4215 44.8195 26.3912 44.5871 28.3753 44.1295C26.9096 47.4041 24.686 53.3813 24.0676 60.5703C23.3383 68.9462 24.779 80.2929 34.3274 90.2918Z" fill="white"/>
<path d="M138.878 56.8632C138.878 64.8566 135.475 70.0688 128.668 72.4925C126.294 73.3469 123.742 73.7759 121.011 73.7759C115.28 73.7759 109.964 71.9885 105.06 68.41L110.165 58.5112C113.754 61.8573 117.264 63.5303 120.696 63.5303C122.244 63.5303 123.556 63.1585 124.632 62.4114C125.887 61.5713 126.516 60.3844 126.516 58.8437C126.516 57.4459 125.823 56.2805 124.432 55.3475C123.402 54.6468 121.661 53.9354 119.22 53.2133C116.26 52.316 114.397 51.6939 113.636 51.3472C112.424 50.8181 111.394 50.1961 110.54 49.4811C108.095 47.4077 106.872 44.2725 106.872 40.0756C106.872 35.6964 108.138 32.0644 110.669 29.183C113.625 25.794 117.565 24.0996 122.487 24.0996C127.435 24.0996 132.282 25.3794 137.026 27.9425L132.257 37.4981C129.655 35.3997 127.027 34.3487 124.378 34.3487C123.098 34.3487 121.955 34.6847 120.943 35.3568C119.799 36.1218 119.227 37.1407 119.227 38.4133C119.227 39.6645 119.978 40.7406 121.479 41.645C122.151 42.0633 124.171 42.7818 127.535 43.8006C131.75 45.0733 134.756 46.875 136.551 49.2058C138.102 51.1899 138.878 53.7423 138.878 56.8632Z" fill="white"/>
<path d="M211.308 25.2399L196.669 72.4925H184.515L176.153 45.109L167.388 72.4925H155.265L141.598 25.2399H154.057L162.014 55.7729L171.72 25.2399H181.19L190.224 55.7729L198.886 25.2399H211.308Z" fill="white"/>
<path d="M250.996 59.0617C250.996 62.5937 250.024 65.4643 248.076 67.6807C245.255 70.891 240.958 72.4925 235.181 72.4925H216.109V25.2399H233.841C242.438 25.2399 246.735 29.3475 246.735 37.5625C246.735 40.0327 246.263 42.099 245.327 43.7577C244.544 45.1662 243.336 46.3674 241.698 47.3576C245.355 48.1441 247.854 49.6527 249.195 51.8941C250.396 53.9497 250.996 56.3413 250.996 59.0617ZM235.685 39.1926C235.685 37.0477 234.749 35.6285 232.875 34.935C232.207 34.7062 231.317 34.5882 230.201 34.5882H228.028V43.8328H230.201C232.253 43.8328 233.723 43.3145 234.616 42.2742C235.328 41.4412 235.685 40.4152 235.685 39.1926ZM239.078 58.2324C239.078 55.4869 237.705 53.871 234.96 53.3849C234.087 53.2454 232.593 53.1775 230.473 53.1775H228.028V63.1478H230.673C233.708 63.1478 235.828 62.7796 237.033 62.0396C238.395 61.2102 239.078 59.9412 239.078 58.2324Z" fill="white"/>
<path d="M107.866 86.8671H112.535V88.154H106.332V79.8818H112.37V81.1687H107.87V86.8671H107.866ZM107.748 83.3208H111.859V84.5863H107.748V83.3208Z" fill="white"/>
<path d="M121.35 81.7729C121.854 81.7729 122.305 81.873 122.702 82.0696C123.098 82.2662 123.413 82.5665 123.642 82.974C123.871 83.378 123.985 83.8999 123.985 84.5398V88.154H122.509V84.7257C122.509 84.168 122.376 83.7498 122.112 83.4745C121.847 83.1992 121.479 83.0598 121.007 83.0598C120.66 83.0598 120.353 83.1313 120.085 83.2743C119.817 83.4173 119.609 83.6282 119.463 83.9071C119.316 84.1859 119.245 84.5398 119.245 84.9652V88.1576H117.768V81.8479H119.173V83.5496L118.927 83.0312C119.148 82.6308 119.466 82.3198 119.888 82.1018C120.31 81.8837 120.796 81.7729 121.35 81.7729Z" fill="white"/>
<path d="M128.686 83.0741V81.8908H132.894V83.0741H128.686ZM131.9 88.2362C131.206 88.2362 130.67 88.0575 130.291 87.7C129.912 87.3425 129.723 86.8098 129.723 86.1092V80.4502H131.199V86.077C131.199 86.3773 131.274 86.6097 131.428 86.7741C131.582 86.9385 131.796 87.0208 132.071 87.0208C132.404 87.0208 132.679 86.935 132.897 86.7598L133.312 87.8108C133.14 87.9538 132.926 88.0575 132.672 88.129C132.429 88.2005 132.168 88.2362 131.9 88.2362Z" fill="white"/>
<path d="M140.951 88.2362C140.251 88.2362 139.639 88.0968 139.114 87.818C138.588 87.5391 138.184 87.153 137.898 86.6668C137.609 86.1771 137.466 85.623 137.466 85.001C137.466 84.3718 137.605 83.8141 137.884 83.3279C138.163 82.8417 138.549 82.4628 139.042 82.1875C139.536 81.9123 140.097 81.7729 140.726 81.7729C141.341 81.7729 141.888 81.9051 142.367 82.1732C142.846 82.4414 143.225 82.8203 143.5 83.3065C143.775 83.7962 143.915 84.3682 143.915 85.0331C143.915 85.0975 143.911 85.169 143.908 85.2476C143.904 85.3263 143.897 85.4013 143.89 85.4728H138.631V84.4933H143.111L142.531 84.8008C142.539 84.4397 142.464 84.118 142.306 83.8427C142.149 83.5674 141.934 83.3494 141.663 83.1921C141.391 83.0348 141.076 82.9561 140.723 82.9561C140.361 82.9561 140.043 83.0348 139.772 83.1921C139.5 83.3494 139.289 83.5674 139.132 83.8499C138.978 84.1287 138.903 84.4576 138.903 84.8365V85.0725C138.903 85.4514 138.989 85.7839 139.164 86.077C139.336 86.3701 139.582 86.5918 139.897 86.7491C140.211 86.9064 140.572 86.985 140.984 86.985C141.337 86.985 141.656 86.9314 141.942 86.8206C142.224 86.7098 142.478 86.5382 142.699 86.3022L143.489 87.2138C143.207 87.5427 142.85 87.7965 142.421 87.9753C141.995 88.1504 141.502 88.2362 140.951 88.2362Z" fill="white"/>
<path d="M148.998 88.154V81.8444H150.403V83.5817L150.239 83.0741C150.428 82.6487 150.725 82.327 151.133 82.1053C151.537 81.8837 152.044 81.7764 152.652 81.7764V83.1814C152.588 83.1671 152.53 83.1563 152.473 83.1528C152.42 83.1492 152.362 83.1456 152.309 83.1456C151.747 83.1456 151.304 83.3101 150.972 83.6354C150.639 83.9643 150.475 84.4504 150.475 85.0939V88.154H148.998Z" fill="white"/>
<path d="M157.567 90.4455V81.8444H158.972V83.3315L158.926 85.0081L159.044 86.6847V90.4419H157.567V90.4455ZM161.064 88.2362C160.552 88.2362 160.084 88.1183 159.662 87.8823C159.24 87.6464 158.904 87.2889 158.658 86.8134C158.411 86.338 158.286 85.7338 158.286 85.001C158.286 84.261 158.407 83.6532 158.647 83.1814C158.886 82.7095 159.215 82.3556 159.634 82.1232C160.052 81.8908 160.527 81.7764 161.064 81.7764C161.686 81.7764 162.236 81.9087 162.712 82.1768C163.187 82.4449 163.566 82.8203 163.845 83.2993C164.124 83.7784 164.263 84.3468 164.263 85.001C164.263 85.6552 164.124 86.2236 163.845 86.7098C163.566 87.1959 163.187 87.5713 162.712 87.8394C162.236 88.104 161.686 88.2362 161.064 88.2362ZM160.899 86.9743C161.253 86.9743 161.571 86.8957 161.85 86.7384C162.129 86.5811 162.354 86.3523 162.519 86.052C162.683 85.7517 162.765 85.4014 162.765 85.001C162.765 84.5899 162.683 84.2395 162.519 83.9428C162.354 83.6461 162.129 83.4209 161.85 83.2636C161.571 83.1063 161.253 83.0276 160.899 83.0276C160.545 83.0276 160.227 83.1063 159.941 83.2636C159.659 83.4209 159.433 83.6461 159.269 83.9428C159.105 84.2395 159.022 84.5899 159.022 85.001C159.022 85.4014 159.105 85.7517 159.269 86.052C159.433 86.3523 159.659 86.5811 159.941 86.7384C160.223 86.8957 160.545 86.9743 160.899 86.9743Z" fill="white"/>
<path d="M169.336 88.154V81.8444H170.741V83.5817L170.576 83.0741C170.766 82.6487 171.062 82.327 171.47 82.1053C171.874 81.8837 172.382 81.7764 172.989 81.7764V83.1814C172.925 83.1671 172.868 83.1563 172.811 83.1528C172.753 83.1492 172.7 83.1456 172.646 83.1456C172.085 83.1456 171.642 83.3101 171.309 83.6354C170.977 83.9643 170.812 84.4504 170.812 85.0939V88.154H169.336Z" fill="white"/>
<path d="M178.645 80.8041C178.369 80.8041 178.141 80.7183 177.966 80.5431C177.79 80.3679 177.701 80.1606 177.701 79.9175C177.701 79.6673 177.79 79.4564 177.966 79.2848C178.144 79.1167 178.369 79.0309 178.645 79.0309C178.92 79.0309 179.145 79.1132 179.324 79.274C179.503 79.4349 179.588 79.6387 179.588 79.8818C179.588 80.1427 179.503 80.3608 179.328 80.5395C179.16 80.7147 178.931 80.8041 178.645 80.8041ZM177.901 88.154V81.8444H179.378V88.154H177.901Z" fill="white"/>
<path d="M186.928 88.2362C186.399 88.2362 185.895 88.1683 185.408 88.0289C184.922 87.8895 184.54 87.725 184.257 87.5284L184.826 86.4059C185.108 86.5882 185.448 86.7348 185.841 86.8563C186.234 86.9743 186.627 87.0351 187.024 87.0351C187.489 87.0351 187.825 86.9707 188.036 86.8456C188.243 86.7205 188.35 86.5489 188.35 86.338C188.35 86.1664 188.279 86.0341 188.14 85.9412C187.997 85.8518 187.814 85.7803 187.585 85.7338C187.357 85.6873 187.103 85.6444 186.824 85.6051C186.545 85.5658 186.266 85.5122 185.984 85.4443C185.705 85.3763 185.451 85.2798 185.222 85.1475C184.994 85.0188 184.808 84.8437 184.668 84.622C184.525 84.4004 184.457 84.1108 184.457 83.7462C184.457 83.3458 184.572 82.9955 184.801 82.6988C185.029 82.402 185.351 82.1768 185.762 82.0124C186.177 81.8515 186.667 81.7693 187.232 81.7693C187.657 81.7693 188.086 81.8158 188.519 81.9123C188.951 82.0052 189.309 82.1411 189.595 82.3127L189.026 83.4352C188.726 83.2529 188.426 83.1313 188.122 83.0634C187.818 82.9955 187.518 82.9633 187.217 82.9633C186.767 82.9633 186.434 83.0312 186.22 83.1635C186.002 83.2993 185.895 83.4673 185.895 83.6711C185.895 83.8606 185.966 84.0036 186.105 84.0965C186.248 84.1895 186.431 84.2645 186.66 84.3217C186.888 84.3754 187.142 84.4218 187.421 84.4576C187.7 84.4933 187.979 84.547 188.254 84.6185C188.529 84.69 188.783 84.7865 189.015 84.908C189.248 85.0296 189.434 85.2012 189.577 85.4228C189.72 85.6444 189.788 85.9304 189.788 86.2843C189.788 86.6776 189.67 87.0208 189.441 87.3139C189.208 87.6071 188.88 87.8323 188.454 87.9931C188.029 88.1576 187.521 88.2362 186.928 88.2362Z" fill="white"/>
<path d="M197.695 88.2362C196.995 88.2362 196.38 88.0968 195.858 87.818C195.332 87.5391 194.928 87.153 194.642 86.6668C194.353 86.1771 194.21 85.623 194.21 85.001C194.21 84.3718 194.349 83.8141 194.628 83.3279C194.907 82.8417 195.293 82.4628 195.786 82.1875C196.28 81.9123 196.841 81.7729 197.47 81.7729C198.085 81.7729 198.632 81.9051 199.111 82.1732C199.59 82.4414 199.969 82.8203 200.244 83.3065C200.519 83.7962 200.659 84.3682 200.659 85.0331C200.659 85.0975 200.659 85.169 200.652 85.2476C200.648 85.3263 200.641 85.4013 200.634 85.4728H195.375V84.4933H199.854L199.275 84.8008C199.282 84.4397 199.207 84.118 199.05 83.8427C198.893 83.5674 198.678 83.3494 198.407 83.1921C198.135 83.0348 197.82 82.9561 197.466 82.9561C197.105 82.9561 196.787 83.0348 196.516 83.1921C196.244 83.3494 196.029 83.5674 195.876 83.8499C195.722 84.1287 195.647 84.4576 195.647 84.8365V85.0725C195.647 85.4514 195.733 85.7839 195.908 86.077C196.083 86.3701 196.326 86.5918 196.641 86.7491C196.955 86.9064 197.316 86.985 197.727 86.985C198.081 86.985 198.403 86.9314 198.685 86.8206C198.968 86.7098 199.222 86.5382 199.443 86.3022L200.233 87.2138C199.951 87.5427 199.593 87.7965 199.164 87.9753C198.735 88.1504 198.246 88.2362 197.695 88.2362Z" fill="white"/>
<path d="M207.691 88.2362C207.161 88.2362 206.657 88.1683 206.171 88.0289C205.685 87.8895 205.302 87.725 205.02 87.5284L205.589 86.4059C205.871 86.5882 206.211 86.7348 206.604 86.8563C206.997 86.9743 207.39 87.0351 207.787 87.0351C208.252 87.0351 208.588 86.9707 208.799 86.8456C209.006 86.7205 209.113 86.5489 209.113 86.338C209.113 86.1664 209.042 86.0341 208.902 85.9412C208.759 85.8518 208.574 85.7803 208.348 85.7338C208.12 85.6873 207.866 85.6444 207.587 85.6051C207.308 85.5658 207.026 85.5122 206.747 85.4443C206.468 85.3763 206.214 85.2798 205.985 85.1475C205.757 85.0188 205.571 84.8437 205.431 84.622C205.288 84.4004 205.22 84.1108 205.22 83.7462C205.22 83.3458 205.335 82.9955 205.563 82.6988C205.792 82.402 206.114 82.1768 206.525 82.0124C206.94 81.8515 207.43 81.7693 207.998 81.7693C208.423 81.7693 208.852 81.8158 209.285 81.9123C209.717 82.0052 210.075 82.1411 210.361 82.3127L209.793 83.4352C209.492 83.2529 209.192 83.1313 208.888 83.0634C208.584 82.9955 208.284 82.9633 207.984 82.9633C207.533 82.9633 207.201 83.0312 206.986 83.1635C206.768 83.2993 206.661 83.4673 206.661 83.6711C206.661 83.8606 206.732 84.0036 206.875 84.0965C207.018 84.1895 207.201 84.2645 207.43 84.3217C207.658 84.3754 207.912 84.4218 208.191 84.4576C208.47 84.4933 208.749 84.547 209.024 84.6185C209.299 84.69 209.553 84.7865 209.785 84.908C210.018 85.0296 210.204 85.2012 210.347 85.4228C210.49 85.6444 210.561 85.9304 210.561 86.2843C210.561 86.6776 210.443 87.0208 210.214 87.3139C209.982 87.6071 209.653 87.8323 209.228 87.9931C208.792 88.1576 208.28 88.2362 207.691 88.2362Z" fill="white"/>
<path d="M222.555 88.154V79.8818H224.092V86.8527H228.418V88.154H222.555Z" fill="white"/>
<path d="M233.297 88.154V79.8818H234.834V86.8527H239.16V88.154H233.297Z" fill="white"/>
<path d="M247.715 88.272C247.086 88.272 246.499 88.1683 245.959 87.9574C245.42 87.75 244.951 87.4533 244.555 87.0708C244.158 86.6883 243.847 86.2379 243.629 85.7195C243.407 85.2012 243.296 84.6328 243.296 84.0179C243.296 83.403 243.407 82.8346 243.629 82.3162C243.85 81.7979 244.161 81.3439 244.562 80.9649C244.962 80.5824 245.434 80.2893 245.967 80.0784C246.503 79.871 247.089 79.7638 247.725 79.7638C248.401 79.7638 249.023 79.8818 249.581 80.1105C250.142 80.3429 250.614 80.6897 251 81.1437L250.006 82.0767C249.706 81.755 249.373 81.5119 249.002 81.351C248.63 81.1902 248.23 81.1079 247.797 81.1079C247.364 81.1079 246.968 81.1794 246.61 81.3224C246.253 81.4654 245.942 81.6656 245.677 81.923C245.413 82.184 245.209 82.4914 245.062 82.8453C244.916 83.1992 244.844 83.5889 244.844 84.0143C244.844 84.4397 244.916 84.8294 245.062 85.1833C245.209 85.5372 245.413 85.8446 245.677 86.1056C245.942 86.3666 246.253 86.5668 246.61 86.7062C246.968 86.8492 247.364 86.9207 247.797 86.9207C248.23 86.9207 248.633 86.8384 249.002 86.6776C249.373 86.5167 249.706 86.27 250.006 85.9376L251 86.8849C250.614 87.3354 250.142 87.675 249.581 87.9109C249.02 88.154 248.398 88.272 247.715 88.272Z" fill="white"/>
</svg>
