<svg width="48" height="48" viewBox="0 0 48 48" fill="none" xmlns="http://www.w3.org/2000/svg">
<g clip-path="url(#clip0_5_825)">
<mask id="mask0_5_825" style="mask-type:luminance" maskUnits="userSpaceOnUse" x="0" y="0" width="48" height="48">
<path d="M0 -5.72205e-05H47.3333V47.3333H0V-5.72205e-05Z" fill="white"/>
</mask>
<g mask="url(#mask0_5_825)">
<path d="M31.0625 45.4843C31.5728 45.4843 31.987 45.8985 31.987 46.4088C31.987 46.9191 31.5728 47.3333 31.0625 47.3333C30.5522 47.3333 30.138 46.9191 30.138 46.4088C30.138 45.8985 30.5522 45.4843 31.0625 45.4843Z" fill="white"/>
<path d="M27.3646 45.4843C27.8749 45.4843 28.2891 45.8985 28.2891 46.4088C28.2891 46.9191 27.8749 47.3333 27.3646 47.3333C26.8543 47.3333 26.4401 46.9191 26.4401 46.4088C26.4401 45.8985 26.8543 45.4843 27.3646 45.4843Z" fill="white"/>
<path d="M25.5156 41.7864C26.0259 41.7864 26.4401 42.2006 26.4401 42.7109C26.4401 43.2212 26.0259 43.6354 25.5156 43.6354C25.0053 43.6354 24.5911 43.2212 24.5911 42.7109C24.5911 42.2006 25.0053 41.7864 25.5156 41.7864Z" fill="white"/>
<path d="M23.6667 45.4843C24.177 45.4843 24.5911 45.8985 24.5911 46.4088C24.5911 46.9191 24.177 47.3333 23.6667 47.3333C23.1564 47.3333 22.7422 46.9191 22.7422 46.4088C22.7422 45.8985 23.1564 45.4843 23.6667 45.4843Z" fill="white"/>
<path d="M21.8177 41.7864C22.328 41.7864 22.7422 42.2006 22.7422 42.7109C22.7422 43.2212 22.328 43.6354 21.8177 43.6354C21.3074 43.6354 20.8932 43.2212 20.8932 42.7109C20.8932 42.2006 21.3074 41.7864 21.8177 41.7864Z" fill="white"/>
<path d="M19.9687 45.4843C20.479 45.4843 20.8932 45.8985 20.8932 46.4088C20.8932 46.9191 20.479 47.3333 19.9687 47.3333C19.4584 47.3333 19.0443 46.9191 19.0443 46.4088C19.0443 45.8985 19.4584 45.4843 19.9687 45.4843Z" fill="white"/>
<path d="M16.2708 45.4843C16.7811 45.4843 17.1953 45.8985 17.1953 46.4088C17.1953 46.9191 16.7811 47.3333 16.2708 47.3333C15.7605 47.3333 15.3463 46.9191 15.3463 46.4088C15.3463 45.8985 15.7605 45.4843 16.2708 45.4843Z" fill="white"/>
<path d="M21.0614 7.58992C20.5567 8.09469 19.8384 8.37305 19.0405 8.37305C17.9145 8.37305 16.745 7.84887 15.8317 6.93641C15.0329 6.13757 14.5309 5.14199 14.4191 4.13616C14.3118 3.16629 14.5808 2.30375 15.1781 1.70746C15.6828 1.2027 16.4011 0.92443 17.199 0.92443C18.325 0.92443 19.4944 1.44778 20.4078 2.36107C21.2075 3.16084 21.7095 4.15465 21.8195 5.16048C21.9286 6.13017 21.6587 6.99178 21.0614 7.58992Z" stroke="white" stroke-width="1.84896" stroke-miterlimit="10" stroke-linecap="round" stroke-linejoin="round"/>
<path d="M15.1781 1.70739L21.0615 7.58984" stroke="white" stroke-width="1.84896" stroke-miterlimit="10" stroke-linecap="round" stroke-linejoin="round"/>
<path d="M24.4229 13.6657C23.9181 13.1609 23.6408 12.4434 23.6408 11.6448C23.6408 10.5187 24.164 9.34928 25.0765 8.43673C25.8752 7.63714 26.8709 7.13506 27.8777 7.0232C28.8465 6.91596 29.7091 7.18498 30.3053 7.78321C30.8101 8.28696 31.0884 9.00537 31.0884 9.8032C31.0884 10.9291 30.5651 12.0987 29.6517 13.0121C28.8521 13.8117 27.8582 14.3137 26.8524 14.4236C25.8826 14.5328 25.021 14.2629 24.4229 13.6657Z" stroke="white" stroke-width="1.84896" stroke-miterlimit="10" stroke-linecap="round" stroke-linejoin="round"/>
<path d="M30.3053 7.78319L24.4229 13.6656" stroke="white" stroke-width="1.84896" stroke-miterlimit="10" stroke-linecap="round" stroke-linejoin="round"/>
<path d="M32.9114 29.2134V25.5155H30.8009C30.6271 24.8434 30.3608 24.2129 30.0169 23.6296L31.5109 22.1347L28.8964 19.5203L27.4016 21.0142C26.8182 20.6703 26.1877 20.4041 25.5156 20.2303V18.1197H21.8177V20.2303C21.1456 20.4041 20.5151 20.6703 19.9318 21.0142L18.4369 19.5203L15.8225 22.1347L17.3164 23.6296C16.9725 24.2129 16.7063 24.8434 16.5325 25.5155H14.4219V29.2134H16.5325C16.7063 29.8855 16.9725 30.516 17.3164 31.0994L15.8225 32.5942L18.4369 35.2087L19.9318 33.7147C20.5151 34.0586 21.1456 34.3249 21.8177 34.4987V36.6093H25.5156V34.4987C26.1877 34.3249 26.8182 34.0586 27.4016 33.7147L28.8964 35.2087L31.5109 32.5942L30.0169 31.0994C30.3608 30.516 30.6271 29.8855 30.8009 29.2134H32.9114Z" stroke="white" stroke-width="1.84896" stroke-miterlimit="10" stroke-linecap="round" stroke-linejoin="round"/>
<path d="M27.3646 27.3645C27.3646 29.4066 25.7088 31.0624 23.6667 31.0624C21.6245 31.0624 19.9688 29.4066 19.9688 27.3645C19.9688 25.3223 21.6245 23.6665 23.6667 23.6665C25.7088 23.6665 27.3646 25.3223 27.3646 27.3645Z" stroke="white" stroke-width="1.84896" stroke-miterlimit="10" stroke-linecap="round" stroke-linejoin="round"/>
<path d="M18.1198 42.7108V39.0619C13.747 36.9846 10.724 32.5277 10.724 27.3645C10.724 23.4142 12.4943 19.8762 15.2844 17.5021L8.875 0.924378" stroke="white" stroke-width="1.84896" stroke-miterlimit="10" stroke-linecap="round" stroke-linejoin="round"/>
<path d="M34.5755 8.59762C34.5755 9.10811 34.9894 9.52209 35.5 9.52209C36.0106 9.52209 36.4245 9.10811 36.4245 8.59762C36.4245 8.08712 36.0106 7.67314 35.5 7.67314C34.9894 7.67314 34.5755 8.08712 34.5755 8.59762Z" fill="white"/>
<path d="M38.4583 0.924363L36.993 4.71436" stroke="white" stroke-width="1.84896" stroke-miterlimit="10" stroke-linecap="round" stroke-linejoin="round"/>
<path d="M33.9925 12.4752L32.0489 17.5023C34.839 19.8763 36.6094 23.4142 36.6094 27.3646C36.6094 32.5277 33.5863 36.9846 29.2136 39.062V42.7109" stroke="white" stroke-width="1.84896" stroke-miterlimit="10" stroke-linecap="round" stroke-linejoin="round"/>
</g>
</g>
<defs>
<clipPath id="clip0_5_825">
<rect width="47.3333" height="47.3333" fill="white"/>
</clipPath>
</defs>
</svg>
