<svg width="46" height="46" viewBox="0 0 46 46" fill="none" xmlns="http://www.w3.org/2000/svg">
<path d="M38.4366 15.7062L37.1982 14.4678C36.5866 13.8575 36.2509 13.0453 36.2509 12.1807V10.4356C36.2509 7.85957 34.155 5.76369 31.5783 5.76369H29.8332C28.97 5.76369 28.1571 5.42732 27.5454 4.81638L26.307 3.57797C25.4244 2.69535 24.2521 2.20947 23.0029 2.20947C21.7537 2.20947 20.5821 2.69535 19.6995 3.57797L18.4611 4.81566C17.8495 5.4266 17.0373 5.76297 16.1733 5.76297H14.421C11.8443 5.76297 9.74843 7.85885 9.74843 10.4348V12.18C9.74843 13.0446 9.41205 13.8568 8.80112 14.467L7.56271 15.7054C5.74212 17.5275 5.74212 20.4916 7.56271 22.3129L8.80112 23.5513C9.41277 24.1615 9.74843 24.9737 9.74843 25.8384V27.5914C9.74843 30.1674 11.8443 32.2633 14.421 32.2633H16.1733C16.3243 32.2633 16.4709 32.2863 16.6175 32.3064V43.0711C16.6175 43.3371 16.7641 43.5814 16.9992 43.7065C17.2349 43.8308 17.5196 43.815 17.7395 43.6663L23.2839 39.9058L28.2268 43.6447C28.3547 43.741 28.5071 43.7906 28.6609 43.7906C28.7701 43.7906 28.8801 43.7654 28.9807 43.7158C29.2251 43.5944 29.3796 43.345 29.3796 43.0718V32.3078C29.5291 32.287 29.6779 32.264 29.8317 32.264H31.5769C34.1536 32.264 36.2495 30.1681 36.2495 27.5921V25.8391C36.2495 24.9744 36.5858 24.1623 37.1968 23.552L38.4352 22.3136C40.2558 20.4916 40.2558 17.5275 38.4352 15.7062H38.4366ZM27.9436 41.6279L23.7425 38.4496C23.496 38.2641 23.1603 38.2548 22.9051 38.428L18.0565 41.717V32.8785C18.1981 32.9806 18.3368 33.0863 18.4618 33.212L19.7002 34.4504C20.5829 35.3331 21.7551 35.8189 23.0036 35.8189C24.2521 35.8189 25.4251 35.3331 26.3077 34.4504L27.5461 33.2128C27.669 33.0898 27.8056 32.9863 27.9443 32.8857V41.6286L27.9436 41.6279ZM37.4203 21.2973L36.1819 22.535C35.2993 23.4169 34.8134 24.5899 34.8134 25.8391V27.5921C34.8134 29.3753 33.3615 30.8265 31.5783 30.8265H29.8332C28.5861 30.8265 27.4124 31.3124 26.5291 32.195L25.2907 33.4334C24.6797 34.0443 23.8683 34.3807 23.0029 34.3807C22.1375 34.3807 21.3268 34.0443 20.7158 33.4334L19.4774 32.195C18.5941 31.3124 17.4211 30.8272 16.1733 30.8272H14.421C12.6378 30.8272 11.1859 29.3761 11.1859 27.5928V25.8398C11.1859 24.5913 10.6993 23.4176 9.81743 22.5364L8.57902 21.298C7.31834 20.0366 7.31834 17.9846 8.57902 16.7232L9.81743 15.4855C10.7001 14.6036 11.1859 13.4306 11.1859 12.1814V10.4363C11.1859 8.65307 12.6378 7.20191 14.421 7.20191H16.1733C17.4204 7.20191 18.5941 6.71604 19.4774 5.83341L20.7158 4.595C21.3268 3.98407 22.1382 3.64769 23.0029 3.64769C23.8676 3.64769 24.6797 3.98407 25.2907 4.595L26.5291 5.83341C27.4124 6.71604 28.5854 7.20119 29.8332 7.20119H31.5783C33.3615 7.20119 34.8134 8.65235 34.8134 10.4356V12.1807C34.8134 13.4292 35.3 14.6029 36.1819 15.4841L37.4203 16.7225C38.681 17.9839 38.681 20.0359 37.4203 21.2973Z" fill="white"/>
<path d="M23 9.0376C17.4994 9.0376 13.0237 13.5125 13.0237 19.0131C13.0237 24.5137 17.4994 28.9887 23 28.9887C28.5006 28.9887 32.9762 24.5137 32.9762 19.0131C32.9762 13.5125 28.5006 9.0376 23 9.0376ZM23 27.5519C18.2915 27.5519 14.4612 23.7217 14.4612 19.0138C14.4612 14.306 18.2915 10.4758 23 10.4758C27.7085 10.4758 31.5387 14.306 31.5387 19.0138C31.5387 23.7217 27.7085 27.5519 23 27.5519Z" fill="white"/>
<path d="M27.4814 18.7903C27.4814 18.786 27.48 18.7824 27.4792 18.7788C26.9704 16.3394 25.2691 13.2401 23 13.2401C20.2731 13.2401 18.3597 17.7201 18.3597 20.1459C18.3597 22.7046 20.4412 24.7861 23 24.7861C25.1304 24.7861 26.9265 23.3407 27.4685 21.38C27.4728 21.367 27.4814 21.357 27.485 21.3433C27.4886 21.3311 27.485 21.3189 27.4871 21.3066C27.5835 20.935 27.6402 20.5476 27.6402 20.1459C27.6402 19.7419 27.5827 19.2783 27.4814 18.7903ZM20.263 17.8947L26.1445 19.4631C26.1797 19.7038 26.202 19.9353 26.202 20.1466C26.202 20.184 26.1927 20.2185 26.1912 20.2551L20.0351 18.6128C20.0998 18.3749 20.1753 18.1355 20.263 17.8955V17.8947ZM22.9993 14.6776C24.0594 14.6776 25.1282 16.2409 25.7241 17.8631L20.8653 16.5679C21.4597 15.4999 22.2316 14.6783 22.9993 14.6783V14.6776ZM22.9993 23.3486C21.2333 23.3486 19.7965 21.9118 19.7965 20.1459C19.7965 20.1114 19.8008 20.0733 19.8016 20.038L25.8139 21.6416C25.2748 22.6521 24.2219 23.3486 22.9993 23.3486Z" fill="white"/>
</svg>
