<svg width="40" height="45" viewBox="0 0 40 45" fill="none" xmlns="http://www.w3.org/2000/svg">
<path fill-rule="evenodd" clip-rule="evenodd" d="M32.5768 13.9588C33.0701 13.8256 33.6225 13.93 34.1955 14.2599C33.8629 14.8344 33.4359 15.2027 32.9427 15.3364C32.4496 15.4691 31.8972 15.3652 31.3242 15.0354C31.6569 14.4609 32.0836 14.0915 32.5768 13.9588ZM30.0462 15.8111C30.8516 16.4316 31.7075 16.7544 32.5218 16.7544C32.7842 16.7544 33.0424 16.7206 33.2931 16.6527C34.3219 16.3752 35.1721 15.5353 35.6873 14.2874C35.8053 14.0019 35.7175 13.6716 35.4738 13.4837C34.4086 12.6627 33.2555 12.364 32.2266 12.6414C31.1978 12.92 30.3477 13.76 29.8324 15.0073C29.7146 15.2929 29.8021 15.6226 30.0462 15.8111ZM27.7527 5.37727C28.1065 5.02104 28.6253 4.83552 29.2715 4.83094C29.267 5.48185 29.0832 6.00528 28.7294 6.36205C28.3759 6.71828 27.8568 6.9038 27.2106 6.90838C27.2153 6.2563 27.3992 5.7335 27.7527 5.37727ZM26.4882 8.22458C26.7215 8.25557 26.9491 8.26994 27.17 8.26994C28.1948 8.26994 29.0724 7.9447 29.6861 7.32659C30.432 6.57334 30.7487 5.42892 30.5778 4.10293C30.5381 3.79558 30.2986 3.55372 29.994 3.51464C28.6778 3.34169 27.5422 3.66054 26.7963 4.41262C26.0502 5.1646 25.7334 6.30965 25.9044 7.63618C25.9441 7.94364 26.1839 8.18432 26.4882 8.22458ZM5.15036 13.9588C5.64374 14.0915 6.07045 14.4609 6.40303 15.0355C5.83 15.3653 5.27766 15.4692 4.78428 15.3365C4.29112 15.2027 3.8643 14.8344 3.53171 14.26C4.10496 13.93 4.65729 13.8256 5.15036 13.9588ZM4.43438 16.6527C4.68508 16.7206 4.94307 16.7544 5.20561 16.7544C6.01974 16.7544 6.87581 16.4316 7.68128 15.8111C7.92512 15.6226 8.0128 15.2929 7.89479 15.0074C7.37965 13.7601 6.52939 12.9201 5.50058 12.6415C4.47178 12.364 3.31883 12.6628 2.25379 13.4838C2.00995 13.6717 1.92226 14.002 2.04006 14.2876C2.5552 15.5353 3.40567 16.3752 4.43438 16.6527ZM9.97153 5.58121C10.3324 5.94426 10.5194 6.4792 10.5224 7.14448C9.8625 7.14108 9.33236 6.95257 8.97125 6.58889C8.61035 6.22467 8.42356 5.69091 8.42029 5.02562C9.08028 5.0286 9.61042 5.21646 9.97153 5.58121ZM10.5558 8.50605C10.7788 8.50605 11.0088 8.4905 11.2444 8.46015C11.549 8.41989 11.7885 8.17921 11.8279 7.87186C12.0008 6.53212 11.6812 5.37557 10.9281 4.61667C10.1749 3.85713 9.02788 3.53487 7.6985 3.709C7.39391 3.74925 7.15441 3.99111 7.11479 4.29729C6.94216 5.63766 7.26175 6.79358 8.01492 7.55311C8.63444 8.1775 9.52052 8.50605 10.5558 8.50605ZM18.8637 1.58726C19.3281 2.0601 19.5708 2.57086 19.5708 3.08556C19.5708 3.60026 19.3281 4.11102 18.8637 4.58387C18.3992 4.11102 18.1566 3.60026 18.1566 3.08556C18.1567 2.57076 18.3993 2.06 18.8637 1.58726ZM18.4509 6.02935C18.5727 6.12296 18.7181 6.17014 18.8637 6.17014C19.0093 6.17014 19.1546 6.12307 19.2764 6.02935C20.3386 5.20432 20.9237 4.15927 20.9237 3.08556C20.9235 2.01175 20.3386 0.9667 19.2764 0.141774C19.033 -0.047258 18.6942 -0.047258 18.4511 0.141774C17.3889 0.966806 16.8036 2.01186 16.8036 3.08556C16.8037 4.15927 17.3887 5.20432 18.4509 6.02935ZM27.6238 18.6906C27.8899 22.4582 26.5174 26.6143 23.858 30.0935C23.2602 30.8754 22.9432 31.3373 22.6075 31.8262C22.4826 32.0078 22.3555 32.1933 22.2097 32.4018C20.3663 29.52 19.3137 26.5573 19.8244 25.5427C19.8785 25.4352 20.0221 25.1509 20.7007 25.137C22.5042 25.1025 23.5956 24.7349 24.1348 23.9823C24.7581 23.1136 24.4307 22.0462 24.1675 21.189C24.0333 20.7506 23.8941 20.2979 23.9293 20.029C24.0328 19.2351 24.793 18.7886 26.1888 18.7054C26.4537 18.6888 26.6853 18.518 26.7801 18.2682C26.875 18.0182 26.8157 17.7356 26.6287 17.5443C25.907 16.8107 25.1347 16.2224 24.4535 15.7036C23.6643 15.1027 22.9188 14.5357 22.7393 14.0663C22.6645 13.8709 22.6373 13.4044 22.6108 12.9535C22.5567 12.0239 22.4855 10.8024 21.9984 9.5937C25.3719 11.5918 27.3454 14.751 27.6238 18.6906ZM19.4312 7.5283C19.6011 7.24906 19.9447 7.13021 20.249 7.24736C22.9469 8.28262 25.0795 9.85164 26.5876 11.9106C27.9929 13.829 28.7955 16.0782 28.9731 18.5934C29.2628 22.6909 27.7887 27.1853 24.9294 30.9255C24.353 31.6798 24.0598 32.1073 23.72 32.6025C23.4659 32.9725 23.1782 33.3918 22.7346 33.998C22.6071 34.1727 22.4047 34.2755 22.1901 34.2755C22.1875 34.2755 22.1847 34.2755 22.1821 34.2755C21.9646 34.2738 21.7615 34.1658 21.6364 33.9854C20.0028 31.6379 17.5287 27.0889 18.6181 24.9253C18.8761 24.4134 19.4423 23.7982 20.6746 23.774C22.3874 23.7413 22.8907 23.3902 23.0383 23.1845C23.2663 22.8662 23.0674 22.2182 22.875 21.592C22.6979 21.0135 22.5144 20.4165 22.5881 19.8518C22.6776 19.163 23.0815 18.0863 24.6603 17.5923C24.3117 17.3056 23.964 17.0402 23.638 16.7919C22.6493 16.0393 21.7955 15.3896 21.4771 14.5571C21.3263 14.1636 21.2973 13.6649 21.2605 13.0341C21.1799 11.6564 21.0699 9.77027 19.5547 8.39146C19.3132 8.17058 19.2611 7.80807 19.4312 7.5283ZM14.1452 29.6719C14.7247 30.2648 15.7766 31.1157 16.8658 31.882C15.5242 29.6235 14.6787 27.4743 14.3448 25.4653C13.8189 22.3025 14.544 19.4628 16.5003 17.0234C18.2827 14.7994 18.6018 12.3054 17.456 9.86495C16.8794 12.0745 15.7896 13.3855 14.8044 14.5691C13.3707 16.2921 12.1324 17.7801 12.3992 21.7759C12.4245 22.1511 12.1426 22.4762 11.7697 22.5009C11.7542 22.5033 11.7389 22.5033 11.7238 22.5033C11.3707 22.5033 11.0736 22.2275 11.0495 21.8673C10.746 17.324 12.2824 15.4786 13.768 13.6931C14.7707 12.4883 15.727 11.3376 16.2034 9.302C10.7389 12.8796 8.76058 18.5713 10.9128 24.7765C11.5131 26.4419 12.6014 28.0919 14.1452 29.6719ZM17.5522 17.8811C14.2826 21.9573 14.9888 27.2555 19.6507 33.6262C19.8337 33.8772 19.8257 34.2197 19.6311 34.4616C19.4994 34.6242 19.305 34.7132 19.1059 34.7132C19.0108 34.7132 18.9149 34.6926 18.8246 34.6506C17.0667 33.8388 14.3476 31.8217 13.1817 30.6284C11.5004 28.9083 10.3083 27.0929 9.63842 25.2337C7.12958 18 9.86958 11.1563 16.7861 7.36632C16.7869 7.36632 16.7881 7.36578 16.7889 7.36578C16.7968 7.3612 16.805 7.35716 16.8132 7.35375C16.8243 7.348 16.8355 7.34171 16.8468 7.33767C16.8545 7.33362 16.8628 7.33075 16.8708 7.32851C16.8829 7.32393 16.8949 7.31935 16.9068 7.31584C16.9147 7.31296 16.9227 7.31126 16.9307 7.30838C16.9434 7.30497 16.9563 7.3021 16.9693 7.29922C16.9771 7.29752 16.9848 7.29581 16.9926 7.29464C17.0062 7.29177 17.0198 7.29006 17.0334 7.28836C17.041 7.28783 17.0486 7.28783 17.0561 7.28666C17.0706 7.28548 17.0849 7.28495 17.0991 7.28495H17.121C17.1364 7.28495 17.1514 7.28548 17.1666 7.28783H17.1799C17.1824 7.28836 17.1844 7.28836 17.1868 7.28953C17.2027 7.29124 17.2184 7.29294 17.2342 7.29645C17.2403 7.29763 17.2461 7.2988 17.2521 7.29933C17.2704 7.30391 17.2887 7.30849 17.3066 7.31371C17.3113 7.31605 17.3157 7.31658 17.3202 7.31829C17.3383 7.32404 17.3556 7.33096 17.373 7.33841C17.381 7.34129 17.3886 7.34587 17.3963 7.34938C17.4076 7.35513 17.419 7.36035 17.4302 7.3661C17.438 7.37068 17.4457 7.37526 17.4532 7.37931C17.4638 7.3857 17.4745 7.39251 17.485 7.39944C17.4918 7.40402 17.4988 7.40977 17.5054 7.41381C17.5159 7.42244 17.5262 7.42936 17.5362 7.43788C17.5426 7.4431 17.5489 7.44885 17.5551 7.45396C17.5647 7.46195 17.574 7.47122 17.5832 7.48037C17.5894 7.48666 17.5954 7.49305 17.6015 7.49933C17.6099 7.50849 17.618 7.51775 17.626 7.52691C17.632 7.53384 17.638 7.54129 17.6437 7.54938C17.6473 7.55396 17.6513 7.55854 17.6546 7.56312C20.1236 10.9585 20.0862 14.7193 17.5525 17.8814H17.5522V17.8811ZM38.6451 19.6529C38.6616 19.4627 38.5784 19.3271 38.5053 19.2472C38.3834 19.1128 38.2006 19.0352 38.0042 19.0352H37.9316C37.6268 19.0352 37.3752 19.2139 37.3056 19.4787L35.4161 26.6694C35.1106 27.8306 34.5507 28.7601 33.6534 29.5943L31.7793 31.3379C31.9066 31.651 31.9565 31.9905 31.9205 32.3364C31.8604 32.9139 31.5704 33.4297 31.1034 33.7889L26.1935 37.5697C26.0707 37.6645 25.9265 37.7099 25.7833 37.7099C25.5799 37.7099 25.3786 37.618 25.2455 37.4427C25.0187 37.1433 25.0754 36.7153 25.3724 36.4861L30.2823 32.7052C30.4502 32.5766 30.5543 32.3944 30.575 32.1933C30.5953 31.9992 30.535 31.8078 30.4049 31.655C30.4049 31.655 30.4049 31.655 30.4047 31.655C30.1113 31.3109 29.5544 31.2568 29.1885 31.5389L23.5804 35.8569C22.4498 36.7278 21.852 37.9154 21.852 39.2913V43.6358H28.6069C28.8906 43.6358 29.1245 43.4335 29.1288 43.1842C29.1684 40.8063 29.5209 39.7141 31.647 37.516C32.3458 36.7932 33.0344 36.2332 33.7001 35.6913C34.8233 34.7779 35.793 33.9891 36.5984 32.6188C38.0159 30.2086 38.2682 25.8096 38.4708 22.2758C38.5249 21.3328 38.5759 20.4417 38.6451 19.6529ZM39.5031 18.3263C39.1253 17.9098 38.579 17.672 38.004 17.672H37.9315C37.004 17.672 36.227 18.258 35.9979 19.1302L34.1081 26.3202C33.8686 27.2319 33.4451 27.9329 32.7359 28.593L30.8889 30.3108C30.1219 29.8563 29.1056 29.8862 28.3671 30.4555L22.7589 34.7735C21.2806 35.9128 20.4992 37.4743 20.4992 39.2915V44.318C20.4992 44.6944 20.802 45 21.1756 45H28.6068C29.624 45 30.4647 44.1963 30.4811 43.2081C30.5137 41.2599 30.6864 40.4625 32.6152 38.4683C33.258 37.8047 33.9145 37.2699 34.5498 36.7528C35.7235 35.7974 36.8324 34.8954 37.7619 33.3143C39.3473 30.6192 39.61 26.0363 39.821 22.3543C39.8747 21.4224 39.9249 20.5417 39.9925 19.773C40.0395 19.2392 39.8656 18.7256 39.5031 18.3263ZM18.1479 43.6361V39.2917C18.1479 37.9157 17.5503 36.7282 16.4198 35.8572L10.8114 31.5392C10.4457 31.2571 9.8887 31.3099 9.59521 31.6553C9.59521 31.6553 9.59521 31.6553 9.595 31.6553C9.46494 31.8081 9.40451 31.9995 9.4249 32.1936C9.44582 32.3947 9.54978 32.5768 9.71787 32.7056L14.6278 36.4864C14.9246 36.7156 14.9813 37.1436 14.7547 37.443C14.6216 37.6182 14.42 37.7102 14.2165 37.7102C14.0733 37.7102 13.9288 37.6648 13.8064 37.57L8.89634 33.7892C8.42969 33.4301 8.13937 32.9142 8.07926 32.3368C8.04323 31.9909 8.0931 31.6514 8.22072 31.3383L6.34641 29.5946C5.44924 28.7604 4.8893 27.8308 4.58376 26.6697L2.69423 19.4791C2.62451 19.2142 2.37296 19.0355 2.06816 19.0355H1.99558C1.79918 19.0355 1.61662 19.113 1.49449 19.2475C1.42148 19.3274 1.33792 19.463 1.35471 19.6532C1.42391 20.442 1.47494 21.3331 1.52904 22.2764C1.73167 25.8103 1.98385 30.2094 3.40134 32.6194C4.2066 33.9896 5.17666 34.7784 6.2996 35.692C6.96551 36.2337 7.65391 36.7939 8.35267 37.5167C10.4789 39.7148 10.8313 40.8069 10.8709 43.1849C10.8751 43.4342 11.1092 43.6364 11.3927 43.6364H18.1479V43.6361ZM17.241 34.7735L11.6329 30.4555C10.8944 29.8862 9.87803 29.8562 9.11113 30.3108L7.26418 28.593C6.55485 27.9328 6.13162 27.2319 5.8919 26.3202L4.00238 19.1302C3.77312 18.2581 2.99607 17.672 2.06858 17.672H1.996C1.42117 17.672 0.874858 17.9098 0.49727 18.3263C0.134578 18.7256 -0.0393201 19.2392 0.00748227 19.773C0.0749918 20.5417 0.125492 21.4224 0.17895 22.3543C0.390036 26.0363 0.652679 30.6193 2.23804 33.3143C3.16754 34.8954 4.27643 35.7974 5.4504 36.7528C6.08535 37.2698 6.74185 37.8047 7.38462 38.4683C9.31355 40.4625 9.48629 41.2599 9.51872 43.2081C9.53531 44.1963 10.3761 45 11.393 45H18.8243C19.1978 45 19.5006 44.6944 19.5006 44.318V39.2915C19.5006 37.4744 18.7192 35.9128 17.241 34.7735Z" fill="white"/>
</svg>
